<?xml version="1.0" encoding="UTF-8"?>
<svg id="Livello_1" data-name="Livello 1" xmlns="http://www.w3.org/2000/svg" version="1.1" viewBox="0 0 5813.2 1135.4">
  <defs>
    <style>
      .cls-1 {
        fill: #959192;
      }

      .cls-1, .cls-2 {
        stroke-width: 0px;
      }

      .cls-2 {
        fill: #1d2346;
      }

      .cls-3 {
        isolation: isolate;
      }
    </style>
  </defs>
  <g>
    <path class="cls-2" d="M1341.3,348.7h148c71.6,0,122,50.2,122,124.7s-50.4,126.3-122,126.3h-78.3v132.2h-69.6v-383.2h0ZM1476.2,539.2c40.4,0,64.1-26,64.1-65.9s-23.8-64.8-63-64.8h-66.4v130.6h65.3Z"/>
    <path class="cls-2" d="M1844.2,342.2c112.9,0,198.2,85.8,198.2,195.3s-85.3,200.8-198.2,200.8-198.1-88-198.1-200.8,85.3-195.3,198.1-195.3M1844.2,674.7c70.2,0,126.3-58.4,126.3-137.2s-56.2-131.7-126.3-131.7-126.3,56.2-126.3,131.7,56.2,137.2,126.3,137.2"/>
    <polygon class="cls-2" points="2112.9 348.7 2182.5 348.7 2182.5 671.9 2348.3 671.9 2348.3 731.8 2112.9 731.8 2112.9 348.7"/>
    <rect class="cls-2" x="2403.8" y="348.7" width="69.6" height="383.2"/>
    <path class="cls-2" d="M2761.1,633.6h-134.3l-32.5,98.2h-71.8l134.9-383.2h73l134.9,383.2h-71.9l-32.3-98.2h0ZM2693.7,415s-8.6,37.8-16.2,59.4l-34.2,102.6h100.4l-33.9-102.6c-7-21.7-15-59.4-15-59.4h-1.1Z"/>
    <path class="cls-2" d="M2933.8,348.7h74.5l75,189.5c8.6,22.7,19.5,56,19.5,56h1.1s10.3-33.4,18.8-56l75-189.5h74.5l30.6,383.2h-69.1l-16.2-214.2c-1.5-25.4-.5-59.4-.5-59.4h-1.1s-11.2,37.2-20.6,59.4l-62,148.4h-61l-61.4-148.4c-9.2-22.1-21.1-59.9-21.1-59.9h-1s1,34.5-.7,59.9l-16.3,214.2h-69.6l31.4-383.2h.2Z"/>
    <path class="cls-2" d="M3388.2,348.7h136.9c69.2,0,118.3,35.7,118.3,98.8s-17.3,66.4-46.5,82v1.1c42,12.4,62.1,51.3,62.1,90.1,0,76.7-61.6,111.2-132.2,111.2h-138.7v-383.1h0ZM3525.1,505.1c30.4,0,47.6-21.6,47.6-49.1s-16.2-47.5-48.6-47.5h-66.4v96.6h67.4ZM3532.2,671.9c35.5,0,55.6-23.2,55.6-55.6s-20.5-55-55.6-55h-74.5v110.6h74.5Z"/>
    <path class="cls-2" d="M3729.1,348.7h69.6v245.6c0,51.3,33.5,80.4,84.8,80.4s85.4-29.2,85.4-81v-245h69.6v245.6c0,85.8-62.2,144.1-154.3,144.1s-155-58.4-155-144.1v-245.6h-.1Z"/>
    <polygon class="cls-2" points="4130.2 348.7 4199.8 348.7 4199.8 671.9 4365.5 671.9 4365.5 731.8 4130.2 731.8 4130.2 348.7"/>
    <path class="cls-2" d="M4623.9,633.6h-134.3l-32.5,98.2h-71.8l135-383.2h72.8l134.8,383.2h-71.6l-32.4-98.2ZM4556.5,415s-8.6,37.8-16.1,59.4l-34.1,102.6h100.4l-34-102.6c-7-21.7-15.1-59.4-15.1-59.4h-1.1Z"/>
    <path class="cls-2" d="M4777.1,348.7h69.6l145.2,221.3c14.7,22.1,32,59.3,32,59.3h1s-3.9-36.7-3.9-59.3v-221.3h69.2v383.2h-69.2l-145.2-220.7c-14.6-22.1-31.8-59.3-31.8-59.3h-1s3.7,36.7,3.7,59.3v220.7h-69.6v-383.2h0Z"/>
    <path class="cls-2" d="M5159.2,687l170-243.8c15.2-22.1,28.1-34.6,28.1-34.6v-1.1s-10.8,1-28.6,1h-160.9v-59.8h277v44.3l-170.1,244.5c-15.1,22.1-28.1,34.4-28.1,34.4v1.2s10.8-1.2,28.7-1.2h171.7v60h-287.8v-44.9h0Z"/>
    <path class="cls-2" d="M5709,633.6h-134.3l-32.4,98.2h-71.7l134.9-383.2h72.9l134.8,383.2h-71.7l-32.5-98.2h0ZM5641.7,415s-8.7,37.8-16.2,59.4l-34,102.6h100.4l-34-102.6c-7.1-21.7-15.1-59.4-15.1-59.4h-1.1,0Z"/>
  </g>
  <path class="cls-2" d="M740.2,68.8l-366.3,121.3,12-49.2s8.7-42.9-6.9-63.3c-13.6-17.9-34.8-30.6-45.3-26.5-14.7,5.7-25.4,63.9-25.4,63.9l-25.4,109.6-182.2,58.7s-37.7,11.5-57.9,30C15.8,337.9-2.5,376.3.3,385.7c3.9,13.4,75.8-9.7,75.8-9.7l187.2-61.9-114.4,514.6s-11.9,47.5-2.3,77.8c6.3,18.6,16.3,47,43.9,49.3,9.5.8,21.5-21.8,23.9-31,2.2-7.9,149.9-433.1,260.8-564.8,137.8-163.6,280.1-204.2,280.1-204.2,0,0-227.9,186.2-317.5,521.7-25.8,96.1-37.8,224.3-42.2,291.9-4.3,64.5,4.6,70.8,15.8,81.8,11.4,11.1,31.1,29.4,51.2,24.1,11.2-3.1,11.4-9.4,11.7-26.1,1-63,9.2-261.9,52-384.6,59.8-171.9,82.4-195.7,82.4-195.7,0,0,118.2,10.7,250.4-54.2,111.5-54.5,181.6-128.8,206.3-226.4,14.2-55.7,5.9-108.5-3.6-143.6-7.3-26.3-13.5-30.6-21.3-35.7-9.5-6.2-14.5-7.3-44.3-3.5,0,0-120.5,18.4-256,63.1M389.7,337.7c-31.2,41.1-80,137-80,137l43.2-189.2,112.3-36.1s-44.4,47.2-75.5,88.3M898.7,283.5c-115.8,89.7-236.3,93.2-236.3,93.2,0,0,66.6-96.3,136.5-160.3,95-87.1,184.5-121,184.5-121,0,0,26.5,102.3-84.6,188.2"/>
  <g>
    <polygon class="cls-1" points="1341.3 3.5 1457.3 3.5 1457.3 29.2 1370.9 29.2 1370.9 98.5 1444.5 98.5 1444.5 124 1370.9 124 1370.9 214.2 1341.3 214.2 1341.3 3.5"/>
    <path class="cls-1" d="M1590.8,0c60.9,0,108,46.9,108,107.4s-47,110.4-108,110.4-108.3-48.3-108.3-110.4S1530,0,1590.8,0M1590.8,190.7c43,0,77.6-35.8,77.6-83.3s-34.6-80.5-77.6-80.5-77.9,34.5-77.9,80.5,34.9,83.3,77.9,83.3"/>
    <path class="cls-1" d="M1742,3.5h29.2l93.7,137c7.8,11.4,17.7,30.4,17.7,30.4h.6s-2.3-18.8-2.3-30.4V3.5h29.7v210.7h-29l-93.9-136.7c-7.9-11.6-17.6-30.7-17.6-30.7h-.7s2.1,18.8,2.1,30.7v136.7h-29.4V3.5h0Z"/>
    <path class="cls-1" d="M1968,3.5h69.7c64.5,0,106.9,38.6,106.9,105.1s-42.4,105.7-106.9,105.7h-69.7V3.6h0ZM2035.7,188.6c47.4,0,78.5-28,78.5-80s-31.5-79.3-78.5-79.3h-38.2v159.3h38.2Z"/>
    <path class="cls-1" d="M2292.1,153.6h-79.3l-20.8,60.6h-30.5L2237.3,3.5h31l75.8,210.7h-30.7l-21.2-60.6h-.1ZM2252.5,32.5s-4.7,19-8.4,29.8l-23.6,66.9h63.9l-23.3-66.9c-3.5-10.8-8-29.8-8-29.8h-.6,0Z"/>
    <path class="cls-1" d="M2358.8,194.4l101.4-146.2c8-11.9,15.2-19.4,15.2-19.4v-.6s-5.7,1-15.9,1h-95.4V3.5h148.1v19.4l-101.5,146.5c-8,11.7-15.2,19.1-15.2,19.1v.6s5.6-.6,15.7-.6h102v25.7h-154.5v-19.8h0Z"/>
    <rect class="cls-1" x="2556.4" y="3.5" width="29.6" height="210.7"/>
    <path class="cls-1" d="M2737.4,0c60.9,0,108,46.9,108,107.4s-47,110.4-108,110.4-108.4-48.3-108.4-110.4S2676.5,0,2737.4,0M2737.4,190.7c42.9,0,77.5-35.8,77.5-83.3s-34.6-80.5-77.5-80.5-77.8,34.5-77.8,80.5,34.8,83.3,77.8,83.3"/>
    <path class="cls-1" d="M2888.5,3.5h29.2l93.7,137c7.8,11.4,17.7,30.4,17.7,30.4h.6s-2.1-18.8-2.1-30.4V3.5h29.5v210.7h-29l-93.9-136.7c-7.8-11.6-17.5-30.7-17.5-30.7h-.7s2.1,18.8,2.1,30.7v136.7h-29.4V3.5h-.2Z"/>
    <polygon class="cls-1" points="3114.4 3.5 3236.8 3.5 3236.8 29.2 3144 29.2 3144 95.1 3219.5 95.1 3219.5 120.8 3144 120.8 3144 188.6 3241.9 188.6 3241.9 214.2 3114.4 214.2 3114.4 3.5"/>
  </g>
  <g class="cls-3">
    <g class="cls-3">
      <path class="cls-1" d="M1344.9,868.1h12.8v207.9h-12.8v-207.9Z"/>
      <path class="cls-1" d="M1411.1,1048.7s16.6,18.7,46,18.7,34.2-9.5,34.2-27.9c0-37.7-81.7-27-81.7-75.4s22.3-40.1,47.5-40.1,44,16,44,16l-7.4,10.1s-12.2-14-37.4-14-33.6,7.7-33.6,27c0,38.6,81.7,27,81.7,76.3s-20.2,40.1-47.5,40.1-53.8-21.4-53.8-21.4l8-9.5Z"/>
      <path class="cls-1" d="M1550.1,939.7h-19.6v-11.3h19.6v-42.2h12.5v42.2h38.9v11.3h-38.9v81.7c0,39.2,23.5,44.3,35.3,44.3s6.8-.6,6.8-.6v11.6s-3,.6-7.4.6c-15.4,0-47.2-5.6-47.2-54.9v-82.6Z"/>
      <path class="cls-1" d="M1637.4,868.1h14.8v21.7h-14.8v-21.7ZM1638.6,927.5h12.5v148.5h-12.5v-148.5Z"/>
      <path class="cls-1" d="M1708.1,939.7h-19.6v-11.3h19.6v-42.2h12.5v42.2h38.9v11.3h-38.9v81.7c0,39.2,23.5,44.3,35.3,44.3s6.8-.6,6.8-.6v11.6s-3,.6-7.4.6c-15.4,0-47.2-5.6-47.2-54.9v-82.6Z"/>
      <path class="cls-1" d="M1794.5,927.5h12.5v89.7c0,25.8,3.3,50.2,36.5,50.2s60.9-32.7,60.9-67.4v-72.5h12.5v148.5h-12.5v-26.1c0-6.8,1.2-12.2,1.2-12.2h-.6c-5,14-25.5,41.9-61.5,41.9s-49-20.2-49-57.9v-94.1Z"/>
      <path class="cls-1" d="M1973.9,939.7h-19.6v-11.3h19.6v-42.2h12.5v42.2h38.9v11.3h-38.9v81.7c0,39.2,23.5,44.3,35.3,44.3s6.8-.6,6.8-.6v11.6s-3,.6-7.4.6c-15.4,0-47.2-5.6-47.2-54.9v-82.6Z"/>
      <path class="cls-1" d="M2128.3,923.9c42.5,0,76.9,33.6,76.9,76.9s-34.5,78.7-76.9,78.7-76.9-34.5-76.9-78.7,34.5-76.9,76.9-76.9ZM2128.3,1067.4c35.3,0,63.9-28.8,63.9-66.5s-28.5-64.7-63.9-64.7-63.9,27.9-63.9,64.7,28.5,66.5,63.9,66.5Z"/>
      <path class="cls-1" d="M2425.3,864.5c57.9,0,105.1,46.3,105.1,106s-47.2,109-105.1,109-105.1-47.8-105.1-109,47.2-106,105.1-106ZM2425.3,1067.4c50.8,0,91.8-42.2,91.8-96.8s-41-93.9-91.8-93.9-91.8,40.7-91.8,93.9,41,96.8,91.8,96.8Z"/>
      <path class="cls-1" d="M2569.4,1048.7s16.6,18.7,46,18.7,34.2-9.5,34.2-27.9c0-37.7-81.7-27-81.7-75.4s22.3-40.1,47.5-40.1,44,16,44,16l-7.4,10.1s-12.2-14-37.4-14-33.6,7.7-33.6,27c0,38.6,81.7,27,81.7,76.3s-20.2,40.1-47.5,40.1-53.8-21.4-53.8-21.4l8-9.5Z"/>
      <path class="cls-1" d="M2703.6,927.5h12.5v17.8c0,6.8-.9,11.9-.9,11.9h.6s12.2-33.3,53.5-33.3,64.2,31.8,64.2,77.8-27.6,77.8-65.9,77.8-52-33.6-52-33.6h-.6s1.2,5.3,1.2,13.1v76.3h-12.5v-207.9ZM2767.5,1067.4c29.1,0,52.9-24.1,52.9-65.6s-21.4-65.6-51.7-65.6-52.9,19.3-52.9,65.9,18.4,65.3,51.7,65.3Z"/>
      <path class="cls-1" d="M2937.3,923.9c40.4,0,60.6,31.8,60.6,67.7s-.6,8-.6,8h-119.1c0,43.1,29.1,67.7,63.6,67.7s46-18.7,46-18.7l6.8,10.4s-20.8,20.5-52.9,20.5-76.6-30.3-76.6-77.5,34.2-78.1,72.2-78.1ZM2984.9,988.1c-1.5-36.2-23.2-52.6-47.8-52.6s-52.6,17.8-57.9,52.6h105.7Z"/>
      <path class="cls-1" d="M3096.5,923.9c37.4,0,51.4,33.6,51.4,33.6h.6s-1.2-5.3-1.2-12.2v-77.2h12.5v207.9h-12.5v-18.7c0-6.8,1.2-11.3,1.2-11.3h-.6s-12.8,33.6-53.8,33.6-64.2-31.8-64.2-77.8,27.6-77.8,66.5-77.8ZM3094.8,1067.4c27.3,0,52.9-19.3,52.9-65.9s-16.9-65.3-51.7-65.3-52.9,24.1-52.9,65.6,21.4,65.6,51.7,65.6Z"/>
      <path class="cls-1" d="M3292,985.4h9.8v-5c0-33-16.9-44.3-40.7-44.3s-42.5,14.3-42.5,14.3l-7.1-10.1s17.8-16.3,50.2-16.3,52.6,19,52.6,56.1v95.9h-12.5v-19.6c0-8,1.2-13.4,1.2-13.4h-.6c.3,0-13.4,36.5-52,36.5s-50.5-13.4-50.5-43.1c0-50.5,65.6-51.1,92.1-51.1ZM3251,1068c32.4,0,50.8-33.6,50.8-63v-8h-9.5c-25.2,0-79.3,0-79.3,38.6s12.8,32.4,38,32.4Z"/>
      <path class="cls-1" d="M3362.9,868.1h12.5v174c0,20.8,10.7,23.2,17.5,23.2s4.5-.3,4.5-.3v11.6s-2.7.6-5.3.6c-8.6,0-29.1-3.3-29.1-31.2v-177.9Z"/>
      <path class="cls-1" d="M3431.5,868.1h14.9v21.7h-14.9v-21.7ZM3432.7,927.5h12.5v148.5h-12.5v-148.5Z"/>
      <path class="cls-1" d="M3559.2,923.9c40.4,0,60.6,31.8,60.6,67.7s-.6,8-.6,8h-119.1c0,43.1,29.1,67.7,63.6,67.7s46-18.7,46-18.7l6.8,10.4s-20.8,20.5-52.9,20.5-76.6-30.3-76.6-77.5,34.2-78.1,72.2-78.1ZM3606.8,988.1c-1.5-36.2-23.2-52.6-47.8-52.6s-52.6,17.8-57.9,52.6h105.7Z"/>
      <path class="cls-1" d="M3661.7,927.5h12.5v28.2c0,6.8-1.2,12.2-1.2,12.2h.6c7.4-22.9,24.1-41.6,47.5-41.6s8.6.9,8.6.9v12.5s-3.6-.6-6.8-.6c-23.2,0-37.7,19.6-44.3,41.6-3.3,10.4-4.5,21.4-4.5,31.2v64.2h-12.5v-148.5Z"/>
      <path class="cls-1" d="M3824.5,923.9c42.5,0,76.9,33.6,76.9,76.9s-34.5,78.7-76.9,78.7-76.9-34.5-76.9-78.7,34.5-76.9,76.9-76.9ZM3824.5,1067.4c35.3,0,63.9-28.8,63.9-66.5s-28.5-64.7-63.9-64.7-63.9,27.9-63.9,64.7,28.5,66.5,63.9,66.5Z"/>
      <path class="cls-1" d="M4030.9,868.1h11.9l118.5,163.1c6.8,9.5,16.9,26.1,16.9,26.1h.6s-1.5-15.7-1.5-26.1v-163.1h12.8v207.9h-11.9l-118.5-163.1c-6.8-9.5-16.9-26.1-16.9-26.1h-.6s1.5,15.7,1.5,26.1v163.1h-12.8v-207.9Z"/>
      <path class="cls-1" d="M4314.2,923.9c42.5,0,76.9,33.6,76.9,76.9s-34.5,78.7-76.9,78.7-76.9-34.5-76.9-78.7,34.5-76.9,76.9-76.9ZM4314.2,1067.4c35.3,0,63.9-28.8,63.9-66.5s-28.5-64.7-63.9-64.7-63.9,27.9-63.9,64.7,28.5,66.5,63.9,66.5Z"/>
      <path class="cls-1" d="M4432.4,927.5h12.5v26.1c0,6.8-1.2,12.2-1.2,12.2h.6c5-14,25.8-41.9,63-41.9s49,22.9,49,57.9v94.1h-12.5v-89.7c0-25.8-3.3-50.2-36.5-50.2s-52.6,19.6-60,47.2c-1.8,6.2-2.4,13.1-2.4,20.2v72.5h-12.5v-148.5Z"/>
      <path class="cls-1" d="M4694.7,868.1h68.3c36.2,0,63.3,22.9,63.3,60.6s-27,61.2-63.3,61.2h-55.5v86.1h-12.8v-207.9ZM4762.4,978c30.3,0,50.5-18.1,50.5-49.3s-20.2-48.7-50.5-48.7h-54.9v98h54.9Z"/>
      <path class="cls-1" d="M4864.6,927.5h12.5v28.2c0,6.8-1.2,12.2-1.2,12.2h.6c7.4-22.9,24.1-41.6,47.5-41.6s8.6.9,8.6.9v12.5s-3.6-.6-6.8-.6c-23.2,0-37.7,19.6-44.3,41.6-3.3,10.4-4.5,21.4-4.5,31.2v64.2h-12.5v-148.5Z"/>
      <path class="cls-1" d="M5027.3,923.9c42.5,0,76.9,33.6,76.9,76.9s-34.5,78.7-76.9,78.7-76.9-34.5-76.9-78.7,34.5-76.9,76.9-76.9ZM5027.3,1067.4c35.3,0,63.9-28.8,63.9-66.5s-28.5-64.7-63.9-64.7-63.9,27.9-63.9,64.7,28.5,66.5,63.9,66.5Z"/>
      <path class="cls-1" d="M5235.2,938.8h-71.9v137.2h-12.5v-137.2h-18.7v-11.3h18.7v-5.9c0-49,32.1-54.9,46.9-54.9s7.7.6,7.7.6v11.6s-2.7-.6-6.8-.6c-11.9,0-35.3,4.8-35.3,43.1v6.2h84.3v148.5h-12.5v-137.2ZM5234,868.1h14.8v21.7h-14.8v-21.7Z"/>
      <path class="cls-1" d="M5304.7,939.7h-19.6v-11.3h19.6v-42.2h12.5v42.2h38.9v11.3h-38.9v81.7c0,39.2,23.5,44.3,35.3,44.3s6.8-.6,6.8-.6v11.6s-3,.6-7.4.6c-15.4,0-47.2-5.6-47.2-54.9v-82.6Z"/>
    </g>
  </g>
</svg>